<svg width="800" height="800" viewBox="0 0 800 800" fill="none" xmlns="http://www.w3.org/2000/svg">
<path d="M305.941 504.174C289.705 504.275 273.516 502.428 257.721 498.672C247.278 496.265 237.135 492.705 227.48 488.058L225.368 487.003L237.285 423.959L241.166 426.458C261.418 439.617 289.386 448.099 312.578 448.099C318.652 448.394 324.722 447.451 330.419 445.325C334.782 443.331 335.287 441.245 335.287 439.823C335.287 439.09 335.287 436.843 330.304 434.619C323.496 431.893 316.477 429.723 309.317 428.131C298.238 425.421 287.347 421.998 276.711 417.884C267.694 414.239 259.646 408.558 253.198 401.286C246.309 393.629 242.842 383.45 242.842 371.094C242.608 356.742 246.959 342.69 255.264 330.974C263.439 319.512 275.333 310.594 290.626 304.404C305.919 298.214 323.783 295.234 344.265 295.234C358.079 295.147 371.86 296.616 385.344 299.613C393.496 301.435 401.449 304.054 409.087 307.43L411.383 308.439L399.076 369.787L395.195 367.082C389.891 363.368 370.258 351.309 340.086 351.309C331.567 351.309 324.954 352.501 320.431 354.84C316.55 356.857 314.598 359.012 314.598 361.236C314.598 362.657 315.103 364.743 319.558 366.738C326.62 369.52 333.911 371.683 341.349 373.203C352.268 375.663 363.008 378.857 373.496 382.762C382.506 386.224 390.564 391.771 397.009 398.948C403.898 406.536 407.227 416.554 407.227 428.75C407.475 443.011 403.083 456.968 394.713 468.526C385.62 480.495 373.321 489.651 359.236 494.935C344.196 501.079 326.24 504.174 305.941 504.174Z" fill="white"/>
<path fill-rule="evenodd" clip-rule="evenodd" d="M289.386 301.47C304.885 295.188 323.324 292.002 344.196 292.002C358.19 291.941 372.146 293.448 385.803 296.495C394.151 298.365 402.295 301.045 410.12 304.496L414.713 306.536L413.748 311.374L402.864 365.66L401.004 374.83L393.243 369.397C388.169 365.844 369.156 354.198 339.948 354.198C331.935 354.198 325.804 355.275 321.716 357.384C318.846 358.875 317.56 359.975 317.56 361.052C317.56 362.13 319.535 363.184 320.706 363.712C327.588 366.401 334.686 368.502 341.923 369.993C352.999 372.475 363.893 375.707 374.529 379.668C384.035 383.323 392.518 389.213 399.259 396.839C406.584 405 410.281 415.706 410.281 428.682C410.525 443.605 405.917 458.204 397.147 470.291C388.628 482.166 375.907 491.52 360.407 497.801C344.908 504.083 326.538 507.269 305.873 507.269C289.398 507.357 272.972 505.487 256.941 501.698C246.262 499.212 235.89 495.56 226.011 490.809L221.832 488.723L222.704 484.138L233.313 427.925L235.035 418.755L242.796 423.776C262.566 436.614 289.937 444.913 312.509 444.913C318.147 445.201 323.786 444.352 329.087 442.414C330.488 441.795 332.141 440.809 332.141 439.732C332.141 439.365 331.154 438.402 328.995 437.439C322.337 434.781 315.471 432.672 308.467 431.135C297.27 428.372 286.257 424.911 275.494 420.773C266.043 416.943 257.61 410.979 250.856 403.349C243.439 395.096 239.696 384.253 239.696 371.094C239.437 356.076 243.972 341.366 252.647 329.095C261.188 317.197 273.886 307.751 289.386 301.47ZM384.586 302.479C371.326 299.546 357.778 298.108 344.196 298.192C324.066 298.176 306.592 301.18 291.774 307.201C276.956 313.223 265.62 321.72 257.767 332.694C249.827 343.907 245.691 357.364 245.965 371.094C245.965 382.74 249.156 392.116 255.54 399.223C261.658 406.149 269.307 411.556 277.882 415.018C288.372 419.066 299.109 422.443 310.029 425.128C317.373 426.755 324.569 428.986 331.544 431.8C336.137 433.634 338.433 436.308 338.433 439.823C338.433 443.339 336.213 446.113 331.774 448.145C325.662 450.47 319.134 451.508 312.6 451.194C290.419 451.194 261.441 443.285 239.512 429.071L228.881 485.284C238.33 489.831 248.258 493.314 258.479 495.669C274.027 499.358 289.961 501.174 305.941 501.079C325.873 501.064 343.247 498.061 358.065 492.07C372.884 486.079 384.265 477.627 392.21 466.715C400.212 455.689 404.403 442.364 404.15 428.751C404.15 417.303 401.004 408.057 394.713 401.011C388.681 394.174 381.11 388.863 372.623 385.514C362.255 381.662 351.637 378.514 340.844 376.091C333.207 374.54 325.722 372.315 318.479 369.443C313.886 367.426 311.59 364.675 311.59 361.144C311.59 357.614 314.093 354.542 319.076 351.974C324.066 349.376 331.1 348.077 340.178 348.077C370.832 348.077 390.786 360.044 397.009 364.4L407.801 310.113C400.331 306.817 392.556 304.26 384.586 302.479Z" fill="white"/>
<path d="M101.579 504.174C83.8068 504.174 68.1926 501.148 55.1731 495.165C42.6703 489.7 32.0679 480.662 24.7025 469.191C17.4723 457.359 13.7907 443.707 14.094 429.851C14.2019 422.765 14.9706 415.704 16.3902 408.76L38.2271 299.521H109.983L88.2384 408.92C87.2293 413.36 86.6905 417.894 86.6311 422.446C86.6311 430.218 88.5599 435.995 92.3486 439.617C96.1374 443.239 101.97 445.142 109.639 445.142C118.388 445.142 125.001 442.483 129.777 437.049C134.553 431.616 138.732 421.506 141.579 407.705L163.164 299.613H233.979L211.223 412.726C205.184 442.666 192.853 465.637 174.645 480.997C156.436 496.357 131.797 504.174 101.579 504.174Z" fill="white"/>
<path fill-rule="evenodd" clip-rule="evenodd" d="M160.615 296.426H237.675H237.767L236.275 303.831L214.254 413.322C208.077 443.973 195.471 467.494 176.642 483.358C157.813 499.222 132.555 507.269 101.579 507.269C83.3476 507.269 67.2971 504.151 53.8643 497.984C40.8151 492.254 29.7516 482.803 22.0619 470.818C14.542 458.494 10.7097 444.279 11.0171 429.851C11.1175 422.552 11.8861 415.277 13.3134 408.118L34.691 301.401L35.7013 296.426H113.772L112.28 303.831L91.2695 409.585C90.3026 413.798 89.7869 418.101 89.731 422.423C89.731 429.324 91.2465 434.344 94.4842 437.37C97.7218 440.396 102.751 441.955 109.639 441.955C117.446 441.955 123.279 439.64 127.458 434.917C132.073 429.667 135.816 420.268 138.525 407.017L159.627 301.424L160.615 296.426ZM208.192 412.107L230.121 302.616H165.712L144.61 408.232C141.656 422.614 137.492 432.862 132.119 438.975C126.746 445.088 119.253 448.145 109.639 448.145C101.113 448.145 94.6296 446.021 90.1903 441.772C85.7509 437.523 83.5313 431.051 83.5313 422.354C83.5871 417.601 84.149 412.867 85.2075 408.232L106.287 302.616H40.776L19.4672 409.218C18.0655 416.01 17.2968 422.917 17.171 429.851C16.855 443.127 20.3787 456.212 27.3202 467.54C34.3568 478.508 44.4988 487.142 56.459 492.345C69.18 498.168 84.2201 501.079 101.579 501.079C131.185 501.018 154.874 493.522 172.647 478.59C190.42 463.658 202.268 441.497 208.192 412.107Z" fill="white"/>
<path d="M416.481 499.75L456.573 299.521H620.866L609.615 355.069H517.192L511.75 382.121H587.066L575.815 437.645H500.798L488.306 499.75H416.481Z" fill="white"/>
<path fill-rule="evenodd" clip-rule="evenodd" d="M454.024 296.426H624.655V296.495L623.162 303.923L613.174 353.258L612.163 358.233H519.787L515.608 379.094H590.924L589.408 386.522L579.42 435.857L578.409 440.809H503.231L491.75 497.939L490.763 502.913H412.692L414.162 495.44L453.036 301.401L454.024 296.426ZM607.089 351.974L617.077 302.616H459.121L420.247 496.655H485.78L498.272 434.551H573.289L583.277 385.215H507.985L514.644 351.974H607.089Z" fill="white"/>
<path d="M600.499 499.75L640.59 299.521H712.438L683.851 442.827H784.447L773.058 499.75H600.499Z" fill="white"/>
<path fill-rule="evenodd" clip-rule="evenodd" d="M638.11 296.426H716.181L714.735 303.831L687.617 439.8H788.282L786.813 447.205L776.663 497.939L775.653 502.913H596.779L598.202 495.44L637.1 301.401L638.11 296.426ZM680.062 445.921L708.673 302.616H643.139L604.287 496.655H770.51L780.659 445.921H680.062Z" fill="white"/>
<path d="M208.72 409.883H193.795L185.092 453.441C181.942 457.952 178.383 462.165 174.461 466.027L185.758 409.883H168.651L154.53 480.493C151.629 482.014 148.647 483.376 145.598 484.573L160.5 409.883H144.197C143.875 411.373 143.531 412.795 143.187 414.17L128.123 489.594C125.414 490.144 122.613 490.58 119.742 490.946L129.662 441.405C124.428 445.767 117.812 448.131 110.994 448.076L102.199 492.047H101.579C99.0306 492.047 96.5736 492.047 94.1167 491.841L103.095 447.618C98.3323 447.024 93.8676 444.983 90.305 441.772C89.2806 440.768 88.3718 439.653 87.5955 438.448L77.2396 489.708C74.576 489.158 72.0043 488.493 69.5014 487.737L84.0364 415.11C84.266 413.413 84.5186 411.694 84.886 409.883H68.0548L53.7724 481.272C51.279 479.89 48.8713 478.358 46.5623 476.687L59.9492 409.837H42.9113L32.3258 462.748C31.3385 461.373 30.3741 459.975 29.4786 458.53C28.3075 456.582 27.1824 454.541 26.2639 452.478L34.7828 409.883H19.3064C17.9939 416.461 17.2791 423.144 17.1709 429.851C16.8549 443.127 20.3786 456.212 27.3201 467.54C34.3567 478.508 44.4988 487.142 56.459 492.345C69.1799 498.168 84.2201 501.079 101.579 501.079C131.17 501.079 154.897 493.598 172.762 478.636C190.626 463.673 202.475 441.512 208.307 412.153L208.72 409.883Z" fill="#CE0E2D"/>
<path d="M400.545 409.883H394.3L383.393 466.99C380.421 469.703 377.234 472.172 373.863 474.372L386.194 409.883H369.156L355.057 483.656C352.233 484.688 349.386 485.651 346.401 486.476L361.028 409.883H344.013L340.729 426.985C340.116 426.615 339.479 426.286 338.823 425.999C337.262 425.289 335.379 424.578 333.221 423.844L335.884 409.883H318.938L317.147 419.282C314.484 418.595 311.912 417.907 309.432 417.196L310.833 409.883H268.123C271.24 411.909 274.547 413.629 277.997 415.018C288.487 419.066 299.224 422.443 310.144 425.128C317.484 426.76 324.679 428.984 331.659 431.777C336.252 433.825 338.548 436.507 338.548 439.823C338.549 440.969 338.281 442.1 337.767 443.125L328.789 490.052C326.079 490.419 323.324 490.717 320.5 490.947L328.444 449.383C323.313 450.723 318.018 451.333 312.715 451.194H311.085L303.255 491.451C300.546 491.451 297.836 491.336 295.172 491.222L302.865 450.713C296.679 450.15 290.541 449.154 284.495 447.733L276.642 489.548C274.001 489.181 271.361 488.769 268.766 488.31L276.757 445.715C271.297 444.175 265.93 442.322 260.683 440.167L252.555 484.573C249.914 483.84 247.343 483.06 244.886 482.281L253.404 436.889C248.651 434.603 244.049 432.015 239.627 429.14L228.996 485.353C238.445 489.9 248.373 493.383 258.594 495.738C274.142 499.426 290.076 501.243 306.056 501.148C326.064 501.148 343.462 498.145 358.249 492.139C373.037 486.132 384.418 477.68 392.394 466.783C400.395 455.758 404.587 442.432 404.334 428.819C404.445 422.309 403.153 415.851 400.545 409.883V409.883Z" fill="#CE0E2D"/>
<path d="M558.363 426.366H550.258L553.564 409.883H536.526L533.22 426.366H525.114L528.398 409.883H511.383L508.076 426.366H499.948L503.254 409.883H486.217L470.924 486.384H462.795L478.111 409.883H461.073L445.757 486.384H437.652L452.967 409.883H437.629L420.247 496.655H485.78L498.272 434.573H573.289L578.271 409.883H561.67L558.363 426.366Z" fill="#CE0E2D"/>
<path d="M764.654 445.921L756.549 486.384H746.399L754.482 445.921H738.478L730.395 486.384H722.266L730.372 445.921H713.334L705.228 486.384H697.123L705.206 445.921H688.191L680.085 486.384H671.979L680.062 445.921L687.249 409.883H670.257L654.942 486.384H646.813L662.129 409.883H645.091L629.798 486.384H621.67L636.985 409.883H621.647L604.287 496.655H770.51L780.659 445.921H764.654Z" fill="#CE0E2D"/>
<path d="M85.2074 408.233L106.287 302.616H40.7759L19.3982 409.333C19.411 409.516 19.411 409.7 19.3982 409.883H84.8859C84.9778 409.333 85.0696 408.92 85.2074 408.233Z" fill="#002D74"/>
<path d="M384.656 302.479C371.373 299.541 357.801 298.103 344.196 298.192C324.021 298.192 306.531 301.195 291.728 307.201C276.925 313.208 265.613 321.705 257.79 332.694C249.85 343.907 245.714 357.364 245.988 371.094C245.988 382.74 249.18 392.116 255.563 399.223C259.216 403.324 263.411 406.91 268.031 409.883H400.545C399.066 406.646 397.099 403.654 394.713 401.011C388.612 394.133 380.951 388.811 372.371 385.491C362.002 381.639 351.385 378.491 340.591 376.068C332.954 374.517 325.47 372.292 318.226 369.42C313.634 367.403 311.338 364.636 311.338 361.121C311.338 357.614 313.841 354.542 318.823 351.951C323.806 349.361 330.856 348.054 339.926 348.054C370.58 348.054 390.442 360.021 396.757 364.377L407.801 310.113C400.354 306.821 392.602 304.264 384.656 302.479Z" fill="#002D74"/>
<path d="M507.985 385.216L514.644 351.974H607.089L617.077 302.616H459.121L437.629 409.883H578.271L583.277 385.216H507.985Z" fill="#002D74"/>
<path d="M708.673 302.616H643.139L621.647 409.883H687.249L708.673 302.616Z" fill="#002D74"/>
<path d="M165.712 302.616L144.61 408.233C144.61 408.806 144.358 409.333 144.243 409.883H208.72L230.213 302.616H165.712Z" fill="#002D74"/>
<path d="M290.121 364.95L291.59 376.71H303.99L292.509 383.978L293.978 395.761L285.391 388.494L273.91 395.761L280.109 383.978L271.544 376.71H283.921L290.121 364.95Z" fill="white"/>
<path d="M481.67 364.95L483.14 376.71H495.539L484.058 383.978L485.528 395.761L476.963 388.494L465.482 395.761L471.659 383.978L463.094 376.71H475.493L481.67 364.95Z" fill="white"/>
<path d="M491.727 311.534L493.197 323.295H505.596L494.115 330.585L495.585 342.345L487.02 335.078L475.539 342.345L481.716 330.585L473.151 323.295H485.551L491.727 311.534Z" fill="white"/>
<path d="M663.966 364.95L665.435 376.71H677.835L666.354 383.978L667.823 395.761L659.258 388.494L647.777 395.761L653.954 383.978L645.389 376.71H657.789L663.966 364.95Z" fill="white"/>
<path d="M674.023 311.534L675.493 323.295H687.892L676.411 330.585L677.881 342.345L669.316 335.078L657.812 342.345L664.012 330.585L655.447 323.295H667.846L674.023 311.534Z" fill="white"/>
<path d="M539.833 311.534L541.302 323.295H553.702L542.221 330.585L543.691 342.345L535.126 335.078L523.645 342.345L529.821 330.585L521.257 323.295H533.656L539.833 311.534Z" fill="white"/>
<path d="M589.247 311.534L590.717 323.295H603.093L591.612 330.585L593.082 342.345L584.517 335.078L573.036 342.345L579.236 330.585L570.648 323.295H583.047L589.247 311.534Z" fill="white"/>
<path d="M290.121 323.226L291.59 335.009H303.99L292.509 342.277L293.978 354.037L285.391 346.77L273.91 354.037L280.109 342.277L271.544 335.009H283.921L290.121 323.226Z" fill="white"/>
<path d="M334.139 307.82L335.609 319.604H348.008L336.527 326.871L337.997 338.632L329.409 331.364L317.928 338.632L324.128 326.871L315.563 319.604H327.939L334.139 307.82Z" fill="white"/>
<path d="M375.677 311.534L377.147 323.295H389.546L378.042 330.585L379.512 342.345L370.947 335.078L359.466 342.345L365.666 330.585L357.078 323.295H369.478L375.677 311.534Z" fill="white"/>
<path d="M70.6266 316.738L72.0962 328.499H84.4727L72.9917 335.789L74.4613 347.549L65.8964 340.282L54.4154 347.549L60.5922 335.789L52.0273 328.499H64.4268L70.6266 316.738Z" fill="white"/>
<path d="M61.0514 364.95L62.521 376.71H74.9205L63.4394 383.978L64.909 395.761L56.3442 388.494L44.8631 395.761L51.0399 383.978L42.4751 376.71H54.8746L61.0514 364.95Z" fill="white"/>
<path d="M185.919 364.95L187.389 376.71H199.788L188.284 383.978L189.754 395.761L181.189 388.494L169.708 395.761L175.908 383.978L167.32 376.71H179.719L185.919 364.95Z" fill="white"/>
<path d="M195.724 316.738L197.193 328.499H209.593L198.112 335.789L199.581 347.549L191.017 340.282L179.513 347.549L185.712 335.789L177.147 328.499H189.524L195.724 316.738Z" fill="white"/>
</svg>
